<svg xmlns="http://www.w3.org/2000/svg" width="42" height="42" viewBox="0 0 42 42">
  <defs>
    <style>
      .cls-1 {
        fill: #fff;
        fill-rule: evenodd;
      }
    </style>
  </defs>
  <path id="Forma_3" data-name="Forma 3" class="cls-1" d="M1103.05,2118.74a2.47,2.47,0,1,0,2.47,2.47A2.469,2.469,0,0,0,1103.05,2118.74Zm-10.98,3.17a10.37,10.37,0,1,0,10.37,10.37A10.379,10.379,0,0,0,1092.07,2121.91Zm0,17.01a6.645,6.645,0,1,1,6.64-6.64A6.651,6.651,0,0,1,1092.07,2138.92Zm20.93-15.26a12.652,12.652,0,0,0-12.65-12.65h-16.7a12.645,12.645,0,0,0-12.65,12.65v16.7a12.645,12.645,0,0,0,12.65,12.65h16.7a12.652,12.652,0,0,0,12.65-12.65v-16.7Zm-3.96,16.7a8.689,8.689,0,0,1-8.69,8.69h-16.7a8.689,8.689,0,0,1-8.69-8.69v-16.7a8.689,8.689,0,0,1,8.69-8.69h16.7a8.689,8.689,0,0,1,8.69,8.69v16.7Z" transform="translate(-1071 -2111)"/>
</svg>
