<?xml version="1.0" encoding="utf-8"?>
<!-- Generator: Adobe Illustrator 24.0.0, SVG Export Plug-In . SVG Version: 6.00 Build 0)  -->
<svg version="1.1" xmlns="http://www.w3.org/2000/svg" xmlns:xlink="http://www.w3.org/1999/xlink" x="0px" y="0px"
	 viewBox="0 0 40 40" style="enable-background:new 0 0 40 40;" xml:space="preserve">
<style type="text/css">
	.st0{display:none;}
	.st1{display:inline;fill:#FFFFFF;}
	.st2{fill:#236192;}
	.st3{fill:#002554;}
	.st4{fill:#FFFFFF;}
	.st5{fill:none;stroke:#236192;stroke-width:3;stroke-linecap:round;stroke-linejoin:round;stroke-miterlimit:10;}
	.st6{fill:none;stroke:#236192;stroke-width:2.1579;stroke-linecap:round;stroke-linejoin:round;stroke-miterlimit:10;}
	.st7{fill:none;stroke:#236192;stroke-width:2.1732;stroke-linecap:round;stroke-linejoin:round;stroke-miterlimit:10;}
	.st8{fill:none;stroke:#FFFFFF;stroke-width:2.9015;stroke-miterlimit:10;}
	.st9{fill:none;stroke:#FFFFFF;stroke-width:2.9015;stroke-linecap:round;stroke-linejoin:round;stroke-miterlimit:10;}
	.st10{fill:none;stroke:#FFFFFF;stroke-width:2.1646;stroke-linecap:round;stroke-linejoin:round;stroke-miterlimit:10;}
</style>
<g id="Capa_2" class="st0">
	
		<image style="display:inline;overflow:visible;" width="1356" height="745" xlink:href="AB161C5513F23D58.png"  transform="matrix(1.4153 0 0 1.4153 -1508.2394 -774.5438)">
	</image>
</g>
<g id="Capa_1">
	<path class="st4" d="M28,1.8h-6.2c-3.6,0-6.6,2.9-6.6,6.6v5.2H12c-0.3,0-0.5,0.2-0.5,0.5v5.4c0,0.3,0.2,0.5,0.5,0.5h3.3v0.3v17.6
		c0,0.3,0.2,0.5,0.5,0.5h6.5c0.3,0,0.5-0.2,0.5-0.5V19.9h4.7c0.2,0,0.4-0.2,0.5-0.4l0.5-5.4c0-0.3-0.2-0.5-0.5-0.5h-5.2V9.7
		c0-0.9,0.7-1.6,1.6-1.6H28c0.3,0,0.5-0.2,0.5-0.5V2.2C28.5,2,28.3,1.8,28,1.8z"/>
</g>
</svg>
