<?xml version="1.0" encoding="utf-8"?>
<!-- Generator: Adobe Illustrator 24.0.0, SVG Export Plug-In . SVG Version: 6.00 Build 0)  -->
<svg version="1.1" xmlns="http://www.w3.org/2000/svg" xmlns:xlink="http://www.w3.org/1999/xlink" x="0px" y="0px"
	 viewBox="0 0 60 60" style="enable-background:new 0 0 60 60;" xml:space="preserve">
<style type="text/css">
	.st0{display:none;}
	.st1{display:inline;fill:#FFFFFF;}
	.st2{fill:#236192;}
	.st3{fill:#002554;}
	.st4{fill:#FFFFFF;}
	.st5{fill:none;stroke:#236192;stroke-width:3;stroke-linecap:round;stroke-linejoin:round;stroke-miterlimit:10;}
	.st6{fill:none;stroke:#236192;stroke-width:2.1579;stroke-linecap:round;stroke-linejoin:round;stroke-miterlimit:10;}
	.st7{fill:none;stroke:#236192;stroke-width:2.1732;stroke-linecap:round;stroke-linejoin:round;stroke-miterlimit:10;}
	.st8{fill:none;stroke:#FFFFFF;stroke-width:2.9015;stroke-miterlimit:10;}
	.st9{fill:none;stroke:#FFFFFF;stroke-width:2.9015;stroke-linecap:round;stroke-linejoin:round;stroke-miterlimit:10;}
	.st10{fill:none;stroke:#FFFFFF;stroke-width:2.1646;stroke-linecap:round;stroke-linejoin:round;stroke-miterlimit:10;}
</style>
<g id="Capa_2" class="st0">
	
		<image style="display:inline;overflow:visible;" width="1356" height="745" xlink:href="CC991564DE4C3C03.png"  transform="matrix(1.4153 0 0 1.4153 -107.6489 -757.7839)">
	</image>
</g>
<g id="Capa_1">
	<g>
		<path class="st4" d="M8.8,49.7h42.3c3.5,0,6.3-2.8,6.3-6.3V16.7c0-3.5-2.8-6.3-6.3-6.3H8.8c-3.5,0-6.3,2.8-6.3,6.3v26.7
			C2.5,46.8,5.4,49.7,8.8,49.7z M51.2,46.8H8.8c-1.9,0-3.4-1.5-3.4-3.4v-21L30,36.7l24.6-14.4v21C54.6,45.2,53,46.8,51.2,46.8z
			 M8.8,13.2h42.3c1.9,0,3.4,1.5,3.4,3.4V19L30,33.3L5.4,19v-2.3C5.4,14.8,7,13.2,8.8,13.2z"/>
	</g>
</g>
</svg>
