<svg xmlns="http://www.w3.org/2000/svg" viewBox="0 0 259.9 260.54"><defs><style>.cls-1,.cls-2{fill:#00c7b1;}.cls-2{fill-rule:evenodd;}</style></defs><title>whatsapp-icon</title><g id="Capa_2" data-name="Capa 2"><g id="Layer_1" data-name="Layer 1"><path class="cls-1" d="M0,260.54l18.68-69.69a129,129,0,1,1,51.37,50.92Zm73.53-44.88,4.41,2.63a104.71,104.71,0,1,0-35.82-35.5l2.71,4.44L34.4,226.14Z"/><path class="cls-2" d="M179.09,146.58c-5.3-3.17-12.19-6.71-18.43-4.16-4.79,2-7.84,9.46-10.94,13.28-1.6,2-3.5,2.27-5.94,1.29-18-7.16-31.74-19.15-41.66-35.68-1.67-2.57-1.37-4.6.65-7,3-3.52,6.76-7.53,7.57-12.28S108.92,91.74,107,87.51c-2.51-5.41-5.31-13.12-10.73-16.18-5-2.82-11.54-1.24-16,2.37-7.65,6.24-11.35,16-11.24,25.69a36.67,36.67,0,0,0,1,8.16,67.83,67.83,0,0,0,7.82,18A142.14,142.14,0,0,0,86,138a126.16,126.16,0,0,0,35.41,32.88,107,107,0,0,0,22.09,10.5c8.65,2.86,16.36,5.84,25.71,4.06,9.78-1.85,19.42-7.91,23.31-17.34a15.09,15.09,0,0,0,1.08-8.85C192.27,153.15,184,149.53,179.09,146.58Z"/></g></g></svg>