<?xml version="1.0" encoding="utf-8"?>
<!-- Generator: Adobe Illustrator 25.4.1, SVG Export Plug-In . SVG Version: 6.00 Build 0)  -->
<svg version="1.1" id="Capa_1" xmlns="http://www.w3.org/2000/svg" xmlns:xlink="http://www.w3.org/1999/xlink" x="0px" y="0px"
	 viewBox="0 0 16.8 19.2" style="enable-background:new 0 0 16.8 19.2;" xml:space="preserve">
<style type="text/css">
	.st0{fill:#00C7B1;}
</style>
<g>
	<path class="st0" d="M14.5,0H6.2C4.9,0,3.9,1,3.9,2.3v1.5H2.6C1.2,3.9,0,5,0,6.5v10.1c0,1.4,1.2,2.6,2.6,2.6h7.7
		c1.4,0,2.6-1.2,2.6-2.6v-1.3h1.5c1.3,0,2.3-1,2.3-2.3V2.3C16.8,1,15.7,0,14.5,0z M11.6,16.6c0,0.7-0.6,1.3-1.3,1.3H2.6
		c-0.7,0-1.3-0.6-1.3-1.3V6.5c0-0.7,0.6-1.3,1.3-1.3h7.7c0.7,0,1.3,0.6,1.3,1.3V16.6z M15.5,13c0,0.6-0.5,1.1-1.1,1.1h-1.5V6.5
		c0-1.4-1.2-2.6-2.6-2.6H5.1V2.3c0-0.6,0.5-1.1,1.1-1.1h8.2c0.6,0,1.1,0.5,1.1,1.1V13z"/>
</g>
</svg>
