<?xml version="1.0" encoding="utf-8"?>
<!-- Generator: Adobe Illustrator 25.4.1, SVG Export Plug-In . SVG Version: 6.00 Build 0)  -->
<svg version="1.1" id="Capa_1" xmlns="http://www.w3.org/2000/svg" xmlns:xlink="http://www.w3.org/1999/xlink" x="0px" y="0px"
	 viewBox="0 0 72 72" style="enable-background:new 0 0 72 72;" xml:space="preserve">
<style type="text/css">
	.st0{fill:#00C7B1;}
</style>
<g>
	<path class="st0" d="M36,72C16.1,72,0,55.9,0,36S16.1,0,36,0s36,16.2,36,36S55.8,72,36,72z M36,2.2C17.3,2.2,2.2,17.3,2.2,36
		c0,18.7,15.2,33.9,33.8,33.9c18.7,0,33.8-15.2,33.8-33.9C69.8,17.3,54.7,2.2,36,2.2z"/>
	<path class="st0" d="M52.5,20.3h-33c-2.2,0-3.9,1.8-3.9,3.9v23.6c0,2.2,1.8,3.9,3.9,3.9h33c2.2,0,3.9-1.8,3.9-3.9V24.2
		C56.4,22.1,54.6,20.3,52.5,20.3z M52.5,22.5L36,34.7L19.5,22.5H52.5z M54.2,47.8c0,1-0.8,1.8-1.8,1.8h-33c-1,0-1.8-0.8-1.8-1.8
		V24.2c0-0.1,0-0.2,0.1-0.3l17.5,13c0.2,0.1,0.4,0.2,0.6,0.2c0.2,0,0.5-0.1,0.6-0.2l17.5-13c0,0.1,0.1,0.2,0.1,0.3V47.8z"/>
</g>
</svg>
