<?xml version="1.0" encoding="utf-8"?>
<!-- Generator: Adobe Illustrator 25.4.1, SVG Export Plug-In . SVG Version: 6.00 Build 0)  -->
<svg version="1.1" id="Capa_1" xmlns="http://www.w3.org/2000/svg" xmlns:xlink="http://www.w3.org/1999/xlink" x="0px" y="0px"
	 viewBox="0 0 30.2 53.3" style="enable-background:new 0 0 30.2 53.3;" xml:space="preserve">
<style type="text/css">
	.st0{fill:#FFFFFF;}
</style>
<path class="st0" d="M18.5,53.3H9.4c-1.1,0-2.1-0.9-2.1-2.1V33.3H2.1C1,33.3,0,32.4,0,31.2V22c0-1.2,0.9-2.1,2.1-2.1h5.3v-5.4
	C7.4,6.5,13.8,0,21.7,0h6.6c1.1,0,2.1,0.9,2.1,2.1v9.2c0,1.2-0.9,2.1-2.1,2.1h-6.6c-0.6,0-1.1,0.5-1.1,1.2V20h7.7
	c0.6,0,1.2,0.3,1.6,0.8s0.5,1.2,0.4,1.8L28,31.8c-0.2,0.9-1.1,1.6-2,1.6h-5.4v17.9C20.6,52.4,19.6,53.3,18.5,53.3z M10.7,49.9h6.4
	V32c0-1.2,0.9-2.1,2.1-2.1h5.7l1.6-6.5h-7.3c-1.1,0-2.1-0.9-2.1-2.1v-6.7c0-2.5,2-4.6,4.5-4.6H27V3.4h-5.3c-6,0-11,5-11,11.1v6.7
	c0,1.2-0.9,2.1-2.1,2.1H3.4v6.5h5.3c1.1,0,2.1,0.9,2.1,2.1v18H10.7z M24.7,30.9L24.7,30.9L24.7,30.9z M27,21.7L27,21.7L27,21.7z"/>
</svg>
