<?xml version="1.0" encoding="utf-8"?>
<!-- Generator: Adobe Illustrator 25.4.1, SVG Export Plug-In . SVG Version: 6.00 Build 0)  -->
<svg version="1.1" id="Capa_1" xmlns="http://www.w3.org/2000/svg" xmlns:xlink="http://www.w3.org/1999/xlink" x="0px" y="0px"
	 viewBox="0 0 20.2 17.2" style="enable-background:new 0 0 20.2 17.2;" xml:space="preserve">
<style type="text/css">
	.st0{fill:#00C7B1;}
</style>
<path class="st0" d="M20.1,8.9c0-0.1,0.1-0.2,0.1-0.3c0-0.1,0-0.2-0.1-0.3c0-0.1-0.1-0.2-0.2-0.2c0,0,0,0,0,0l-8-7.9
	c-0.3-0.3-0.8-0.3-1.1,0c-0.3,0.3-0.3,0.8,0,1.1l6.7,6.6H0.8C0.3,7.9,0,8.2,0,8.6C0,9,0.3,9.4,0.8,9.4h16.8l-6.7,6.6
	c-0.3,0.3-0.3,0.8,0,1.1c0.1,0.2,0.3,0.2,0.5,0.2c0.2,0,0.4-0.1,0.5-0.2l8-7.8c0,0,0,0,0,0C20,9.1,20.1,9,20.1,8.9z"/>
</svg>
