<?xml version="1.0" encoding="utf-8"?>
<!-- Generator: Adobe Illustrator 25.4.1, SVG Export Plug-In . SVG Version: 6.00 Build 0)  -->
<svg version="1.1" id="Capa_1" xmlns="http://www.w3.org/2000/svg" xmlns:xlink="http://www.w3.org/1999/xlink" x="0px" y="0px"
	 viewBox="0 0 595.3 430.3" style="enable-background:new 0 0 595.3 430.3;" xml:space="preserve">
<style type="text/css">
	.st0{fill:#00C7B1;}
</style>
<g>
	<path class="st0" d="M443.3,245.9c-31.5-3.8-62.1,5.4-93.6,28c-13,9.3-24.1,20.7-33.1,33.7c-16.8,24.6-37.8,46-62.3,63.6
		C185.9,420.4,86.5,440.7,0,422.8v1c14.5,3,29.5,5,45.1,6c6.5,0.4,13.1,0.6,19.7,0.6c30.5,0,61.6-4.1,91.1-12.2
		c36.6-9.9,70.8-25.9,99-46.2c24.6-17.7,45.6-39.1,62.5-63.8c8.9-12.9,19.9-24.2,32.9-33.4c62.4-44.9,122.9-37,196.2,25.5
		c17.7,15.1,33.8,26.9,48.8,35.7v-1.2c-14.8-8.7-30.7-20.4-48.1-35.3C509.4,267.3,475.5,249.8,443.3,245.9z"/>
	<path class="st0" d="M572,3.2C508.1-7.2,443.9,8,391.3,45.8v0c-16.4,11.8-33.5,29.4-49.9,46.4c-19.7,20.3-38.3,39.5-55.4,49
		c-43.9,24.2-88.1,20.3-121.3-10.6C125,92.7,75.1,68.9,20.5,61.7c-6.8-1.2-13.7-2-20.5-2.4v1c6.8,0.4,13.5,1.2,20.3,2.4
		c54.5,7.2,104.1,30.9,143.6,68.5c33.5,31.2,78.2,35.2,122.4,10.8c17.3-9.5,35.9-28.8,55.7-49.1c16.4-16.9,33.4-34.5,49.8-46.2
		C452.9,2.7,527.7-8.6,595.3,9.3V8.1C587.7,6.1,579.9,4.5,572,3.2z"/>
</g>
</svg>
