<?xml version="1.0" encoding="utf-8"?>
<!-- Generator: Adobe Illustrator 25.4.1, SVG Export Plug-In . SVG Version: 6.00 Build 0)  -->
<svg version="1.1" id="Capa_1" xmlns="http://www.w3.org/2000/svg" xmlns:xlink="http://www.w3.org/1999/xlink" x="0px" y="0px"
	 viewBox="0 0 53.2 53.3" style="enable-background:new 0 0 53.2 53.3;" xml:space="preserve">
<style type="text/css">
	.st0{fill:#FFFFFF;}
</style>
<g>
	<path class="st0" d="M40.2,15.5c-1.4,0-2.5-1.1-2.5-2.5s1.1-2.5,2.5-2.5l0,0c1.4,0,2.5,1.1,2.5,2.5S41.6,15.5,40.2,15.5z"/>
	<path class="st0" d="M39.8,53.3H13.4C6,53.3,0,47.3,0,39.9V13.4C0,6,6,0,13.4,0h26.3c7.4,0,13.4,6,13.4,13.4v26.4
		C53.2,47.3,47.2,53.3,39.8,53.3z M13.4,3.7c-5.3,0-9.7,4.4-9.7,9.7v26.4c0,5.4,4.3,9.7,9.7,9.7h26.3c5.3,0,9.7-4.4,9.7-9.7V13.4
		c0-5.4-4.3-9.7-9.7-9.7C39.7,3.7,13.4,3.7,13.4,3.7z"/>
	<path class="st0" d="M26.6,38.6c-6.6,0-12-5.4-12-12s5.4-12,12-12s12,5.4,12,12C38.6,33.3,33.2,38.6,26.6,38.6z M26.6,18.4
		c-4.5,0-8.2,3.7-8.2,8.3s3.7,8.3,8.2,8.3s8.2-3.7,8.2-8.3C34.8,22.1,31.1,18.4,26.6,18.4z"/>
</g>
</svg>
