<?xml version="1.0" encoding="utf-8"?>
<!-- Generator: Adobe Illustrator 25.4.1, SVG Export Plug-In . SVG Version: 6.00 Build 0)  -->
<svg version="1.1" id="Capa_1" xmlns="http://www.w3.org/2000/svg" xmlns:xlink="http://www.w3.org/1999/xlink" x="0px" y="0px"
	 viewBox="0 0 72 72" style="enable-background:new 0 0 72 72;" xml:space="preserve">
<style type="text/css">
	.st0{fill:#00C7B1;}
</style>
<g>
	<path class="st0" d="M22.1,59.2c-2,0-3.6-0.5-4.7-1.6c-0.3-0.3-0.5-0.5-0.8-0.8c-1.8-1.7-3.9-3.8-3.8-6.5c0.1-1.9,1.2-3.7,3.4-5.5
		c6.4-5.1,8.9-3.3,12,0l0.4,0.4c0.3,0.3,2,1.2,9.9-6.6c7.8-7.9,6.9-9.6,6.6-9.9l-0.5-0.5c-3.2-3.1-4.9-5.6,0.1-11.9
		c1.9-2.3,3.7-3.5,5.6-3.5c2.7-0.1,4.8,2.1,6.4,3.8c0.3,0.3,0.6,0.6,0.9,0.9c4,4,0.2,16.7-11.7,28.5c-5.4,5.4-11.5,9.6-17.1,11.7
		C26.4,58.7,24.1,59.2,22.1,59.2z M22.9,43.8c-1.2,0-2.8,0.8-5.2,2.7c-1.7,1.4-2.6,2.7-2.6,3.9c-0.1,1.8,1.7,3.4,3.2,4.8
		c0.3,0.3,0.6,0.6,0.9,0.8c1,1,4.1,1.6,9.2-0.4c5.3-2,11.1-6,16.3-11.2c12-12,14-23.1,11.7-25.5c-0.3-0.3-0.6-0.6-0.9-0.9
		c-1.5-1.6-3.1-3.3-4.8-3.2c-1.2,0-2.6,1-4,2.7c-4.1,5.2-2.8,6.5-0.3,9l0.5,0.5l0,0c2.2,2.2,0.2,6.2-6.6,13
		c-6.8,6.8-10.8,8.8-13,6.6l-0.4-0.5C25.3,44.9,24.3,43.8,22.9,43.8z"/>
	<path class="st0" d="M36,72C16.1,72,0,55.9,0,36S16.1,0,36,0s36,16.2,36,36S55.8,72,36,72z M36,2.2C17.3,2.2,2.2,17.3,2.2,36
		c0,18.7,15.2,33.9,33.8,33.9c18.7,0,33.8-15.2,33.8-33.9C69.8,17.3,54.7,2.2,36,2.2z"/>
</g>
</svg>
