<?xml version="1.0" encoding="utf-8"?>
<!-- Generator: Adobe Illustrator 25.4.1, SVG Export Plug-In . SVG Version: 6.00 Build 0)  -->
<svg version="1.1" id="Capa_1" xmlns="http://www.w3.org/2000/svg" xmlns:xlink="http://www.w3.org/1999/xlink" x="0px" y="0px"
	 viewBox="0 0 72 72" style="enable-background:new 0 0 72 72;" xml:space="preserve">
<style type="text/css">
	.st0{fill:#00C7B1;}
</style>
<g>
	<path class="st0" d="M15.4,55.8c0.6-1.3,1-2.7,1.5-4c0.6-1.5,1.1-3.1,1.7-4.6c0.2-0.4,0.1-0.8-0.1-1.2c-4.1-7.5-4.2-15,0.5-22.2
		c3.2-5,8-7.8,13.9-8.6c10.7-1.4,20.4,5.7,23,15.6c3.1,11.8-4.1,22.9-15.3,25.1c-5.1,1-10,0.2-14.6-2.5c-0.4-0.2-0.6-0.2-1-0.1
		c-2.6,1.1-5.2,2.3-7.9,3.4c-0.9,0.4-1.3,0.3-1.8-0.6V55.8z M18.2,54.1c2.3-1,4.5-1.9,6.6-2.8c0.6-0.3,1.1-0.2,1.8,0.1
		c4.8,3,10,3.8,15.4,2.1c8.8-2.7,14-11.5,12.3-20.8C52.1,21,39.4,13.6,28,18.7c-7,3.1-11.4,10.9-10.4,18.6c0.4,3,1.4,5.8,3,8.4
		c0.3,0.4,0.3,0.9,0.1,1.3c-0.3,0.7-0.6,1.5-0.8,2.2C19.4,50.8,18.8,52.4,18.2,54.1"/>
	<path class="st0" d="M42,47.6c-2.8-0.2-5.3-1.2-7.7-2.8c-4.1-2.7-7.2-6.2-9-10.7c-0.5-1.3-0.8-2.7-1-4.1c-0.1-1.3,0.2-2.6,0.9-3.7
		c0.8-1.2,1.9-2.2,3.3-2.9c1.3-0.6,2.5-0.2,3.2,1c0.6,1,1.3,2.1,1.9,3.1c0.2,0.3,0.4,0.6,0.5,0.9c0.6,1.2,0.5,2-0.5,2.9
		c-0.5,0.5-1,0.9-1.6,1.3c-0.3,0.2-0.3,0.5-0.2,0.8c0.5,1,1.2,1.9,1.9,2.8c1.2,1.3,2.4,2.5,4,3.4c0.8,0.5,0.8,0.4,1.4-0.3
		c0.4-0.5,0.8-1,1.2-1.4c0.8-0.8,1.6-1,2.6-0.5c0.4,0.2,0.8,0.4,1.1,0.6c1,0.6,2.1,1.3,3.1,1.9c1.3,0.8,1.7,1.9,1,3.2
		c-1.1,2.3-2.8,3.9-5.4,4.3C42.6,47.7,42.3,47.6,42,47.6 M42.3,45.6c1.5,0.1,3.8-1.7,4.3-3.2c0.1-0.3,0-0.4-0.2-0.5
		c-1.2-0.7-2.5-1.5-3.7-2.2c-0.4-0.2-0.7-0.2-0.9,0.2c-0.5,0.6-1,1.2-1.5,1.7c-0.6,0.6-1.2,0.8-2,0.6c-0.6-0.2-1.1-0.4-1.7-0.7
		c-1.7-1-3.1-2.4-4.4-3.9c-0.9-1-1.7-2.1-2.1-3.4c-0.4-1.2-0.3-1.8,0.7-2.7c0.5-0.4,0.9-0.8,1.4-1.2c0.4-0.3,0.5-0.6,0.2-1
		c-0.7-1.2-1.4-2.3-2.1-3.5c-0.2-0.4-0.5-0.5-0.9-0.3c-1.1,0.6-1.9,1.4-2.5,2.5c-0.3,0.5-0.4,1.1-0.4,1.7c0.1,1.3,0.4,2.6,0.9,3.9
		c1.8,4.4,4.8,7.7,8.9,10.1C38,44.7,40,45.5,42.3,45.6"/>
	<path class="st0" d="M36,72C16.1,72,0,55.9,0,36S16.1,0,36,0c19.8,0,36,16.2,36,36S55.8,72,36,72z M36,2.2
		C17.3,2.2,2.2,17.3,2.2,36c0,18.7,15.2,33.9,33.8,33.9c18.7,0,33.8-15.2,33.8-33.9C69.8,17.3,54.7,2.2,36,2.2z"/>
</g>
</svg>
