<?xml version="1.0" encoding="utf-8"?>
<!-- Generator: Adobe Illustrator 25.4.1, SVG Export Plug-In . SVG Version: 6.00 Build 0)  -->
<svg version="1.1" id="Capa_1" xmlns="http://www.w3.org/2000/svg" xmlns:xlink="http://www.w3.org/1999/xlink" x="0px" y="0px"
	 viewBox="0 0 68.5 53.3" style="enable-background:new 0 0 68.5 53.3;" xml:space="preserve">
<style type="text/css">
	.st0{fill:#FFFFFF;}
</style>
<g>
	<path class="st0" d="M54.6,53.3H13.9C6.3,53.3,0,47,0,39.3V14C0,6.3,6.3,0,13.9,0h40.7c7.7,0,13.9,6.3,13.9,14v25.4
		C68.5,47,62.3,53.3,54.6,53.3z M13.9,3.7C8.3,3.7,3.7,8.3,3.7,14v25.4c0,5.6,4.6,10.2,10.2,10.2h40.7c5.6,0,10.2-4.6,10.2-10.2V14
		c0-5.6-4.6-10.2-10.2-10.2H13.9V3.7z"/>
	<path class="st0" d="M27.3,38.8c-0.5,0-1.1-0.1-1.6-0.4c-1-0.6-1.6-1.6-1.6-2.7v-18c0-1.1,0.6-2.1,1.6-2.7c1-0.6,2.1-0.6,3.1,0
		l15.5,9c1,0.6,1.6,1.6,1.6,2.7s-0.6,2.2-1.6,2.7l-15.5,9C28.4,38.6,27.9,38.8,27.3,38.8z M27.9,18.7v15.9l13.7-8L27.9,18.7z
		 M42.6,27.2L42.6,27.2L42.6,27.2z"/>
</g>
</svg>
